/* XPM */
static char * linux_xpm[] = {
"18 21 24 1",
" 	c None",
".	c #797979",
"+	c #828282",
"@	c #868686",
"#	c #848484",
"$	c #6E6E6E",
"%	c #7D7D7D",
"&	c #757575",
"*	c #818181",
"=	c #6B6B6B",
"-	c #6C6C6C",
";	c #808080",
">	c #626262",
",	c #7F7F7F",
"'	c #7E7E7E",
")	c #7A7A7A",
"!	c #737373",
"~	c #7B7B7B",
"{	c #777777",
"]	c #707070",
"^	c #787878",
"/	c #727272",
"(	c #6D6D6D",
"_	c #747474",
"                  ",
"                  ",
"                  ",
"       .++        ",
"       +@@#       ",
"       $%&*       ",
"       = -;       ",
"       >  ;       ",
"      , # '*      ",
"     ),    +'     ",
"     ,     ,+     ",
"    !)     $~{    ",
"    *]      )'    ",
"     ^     /++    ",
"   #  '      #    ",
"   #      (   *   ",
"   ,   )_^&       ",
"    * *#   @ @    ",
"                  ",
"                  ",
"                  "};
