/* XPM */
static char *cpu_5[] = {
/* columns rows colors chars-per-pixel */
"32 32 40 1 ",
"  c None",
". c #6D767E",
"X c #6E767F",
"o c #6E777F",
"O c #6F777F",
"+ c #8B7F78",
"@ c #DF915B",
"# c #DF925D",
"$ c #DE935E",
"% c #DE935F",
"& c #DF935F",
"* c #E0935F",
"= c #E0945E",
"- c #E1945E",
"; c #C38C67",
": c #DC9766",
"> c #D99D73",
", c #D7A27D",
"< c #6D7781",
"1 c #6F7780",
"2 c #6E7781",
"3 c #6E7880",
"4 c #6F7880",
"5 c #707880",
"6 c #767E85",
"7 c #81888E",
"8 c #8A9095",
"9 c #ACB1B2",
"0 c #B5B9B9",
"q c #CDB8A7",
"w c #CABDB1",
"e c #C7C4BE",
"r c #BFC2C1",
"t c #C5C8C6",
"y c #C5C8C7",
"u c #C5C9C7",
"i c #C5C9C8",
"p c #C4CAC9",
"a c #C7CAC8",
"s c #C8CBC9",
/* pixels */
"                                ",
"                                ",
"        tt  tt    tt  tt        ",
"        tt  tt    tt  tt        ",
"        tt  tt    tt  tt        ",
"        tt  tt    tt  tt        ",
"      ttttttttttttttttiw,*      ",
"      tttttttttttttttiiq>@      ",
"  tttttt                :%%%%%  ",
"  tttttt                %%%%%%  ",
"      tt                %%      ",
"      tt                %%      ",
"  tttttt    %%    %%    %%%%%%  ",
"  tttttt    %%    %%    **%%%%  ",
"      tt                --      ",
"      tt                ;;      ",
"      tt                ++      ",
"      tt                22      ",
"  tttttt    %%    %%    335555  ",
"  tttttt    %%    %%    555555  ",
"      tt                55      ",
"      tt                55      ",
"  tttttt                555555  ",
"  tttttr                555555  ",
"      i08oo555555555555555      ",
"      s97oo555555555555555      ",
"        61  55    55  55        ",
"        55  55    55  55        ",
"        55  55    55  55        ",
"        55  55    55  55        ",
"                                ",
"                                "
};
