/* XPM */
static char *cpu_6[] = {
/* columns rows colors chars-per-pixel */
"32 32 43 1 ",
"  c None",
". c #6D767E",
"X c #6E767F",
"o c #6E777F",
"O c #6F777F",
"+ c #787A7E",
"@ c #847D7A",
"# c #918076",
"$ c #BC8B69",
"% c #DF915B",
"& c #DF925D",
"* c #DE935E",
"= c #DE935F",
"- c #DF935F",
"; c #E0935F",
": c #E0945E",
"> c #E1945E",
", c #C88E66",
"< c #D69161",
"1 c #DC9766",
"2 c #D99D73",
"3 c #D7A27D",
"4 c #6C7781",
"5 c #6F7780",
"6 c #6E7781",
"7 c #6F7880",
"8 c #707880",
"9 c #767E85",
"0 c #81888E",
"q c #8A9095",
"w c #ACB1B2",
"e c #B5B9B9",
"r c #CDB8A7",
"t c #CABDB1",
"y c #C7C4BE",
"u c #BFC2C1",
"i c #C5C8C6",
"p c #C5C8C7",
"a c #C5C9C7",
"s c #C5C9C8",
"d c #C4CAC9",
"f c #C7CAC8",
"g c #C8CBC9",
/* pixels */
"                                ",
"                                ",
"        ii  ii    ii  ii        ",
"        ii  ii    ii  ii        ",
"        ii  ii    ii  ii        ",
"        ii  ii    ii  ii        ",
"      iiiiiiiiiiiiiiiist3:      ",
"      iiiiiiiiiiiiiiissr2%      ",
"  iiiiii                1=====  ",
"  iiiiii                ======  ",
"      ii                ==      ",
"      ii                ==      ",
"  iiiiii    ==    ==    ======  ",
"  iiiiii    ==    ==    ======  ",
"      ii                ==      ",
"      ii                ==      ",
"      ii                ==      ",
"      ii                ==      ",
"  iiiiii    ==    ==    ======  ",
"  iiiiii    ==    ==    ======  ",
"      ii                ==      ",
"      ii                ;:      ",
"  iiiiii                ::;===  ",
"  iiiiiu                $,<===  ",
"      seqXX888888888877+@#      ",
"      gw0XX888888888888774      ",
"        98  88    88  88        ",
"        88  88    88  88        ",
"        88  88    88  88        ",
"        88  88    88  88        ",
"                                ",
"                                "
};
