/* XPM */
static char *cpu_7[] = {
/* columns rows colors chars-per-pixel */
"32 32 47 1 ",
"  c None",
". c #7D6B71",
"X c #6D767E",
"o c #6E767F",
"O c #6E777F",
"+ c #6F777F",
"@ c #A33F41",
"# c #984F51",
"$ c #A44041",
"% c #A64141",
"& c #A54142",
"* c #A54242",
"= c #A94844",
"- c #B05147",
"; c #B65A4B",
": c #CC7A56",
"> c #D38359",
", c #DA8D5D",
"< c #DF915B",
"1 c #DF925D",
"2 c #DE935E",
"3 c #DE935F",
"4 c #DE945F",
"5 c #DF945F",
"6 c #DF9560",
"7 c #DC9766",
"8 c #D99D73",
"9 c #D7A27D",
"0 c #6F7780",
"q c #6F7981",
"w c #707880",
"e c #767E85",
"r c #81888E",
"t c #8A9095",
"y c #ACB1B2",
"u c #B5B9B9",
"i c #CDB8A7",
"p c #CABDB1",
"a c #C7C4BE",
"s c #BFC2C1",
"d c #C5C8C6",
"f c #C5C8C7",
"g c #C5C9C7",
"h c #C5C9C8",
"j c #C4CAC9",
"k c #C7CAC8",
"l c #C8CBC9",
/* pixels */
"                                ",
"                                ",
"        dd  dd    dd  dd        ",
"        dd  dd    dd  dd        ",
"        dd  dd    dd  dd        ",
"        dd  dd    dd  dd        ",
"      ddddddddddddddddhp9<      ",
"      dddddddddddddddhhi81      ",
"  dddddd                71661,  ",
"  dddddd                666166  ",
"      dd                16      ",
"      dd                66      ",
"  dddddd    **    **    626166  ",
"  dddddd    **    **    ,66666  ",
"      dd                66      ",
"      dd                66      ",
"      dd                16      ",
"      dd                66      ",
"  dddddd    **    **    66,661  ",
"  dddddd    **    **    226666  ",
"      dd                61      ",
"      dd                66      ",
"  dddddd                666661  ",
"  ddddhs                :>,666  ",
"      hutoowwwq.#@*****=-;      ",
"      lyr0+wwwq.#*******@@      ",
"        ew  ww    **  **        ",
"        ww  ww    **  **        ",
"        ww  ww    %%  **        ",
"        ww  ww    **  **        ",
"                                ",
"                                "
};
