/* XPM */
static char *cpu_1[] = {
/* columns rows colors chars-per-pixel */
"32 32 20 1 ",
"  c None",
". c #6D767E",
"X c #6E767E",
"o c #6E767F",
"O c #6E777F",
"+ c #6F777F",
"@ c #6F7780",
"# c #707880",
"$ c #767E85",
"% c #81888E",
"& c #858B91",
"* c #8A9095",
"= c #ACB1B2",
"- c #B0B5B5",
"; c #B5B9B9",
": c #BFC2C1",
"> c #C5C8C6",
", c #C6C9C7",
"< c #C7CAC8",
"1 c #C8CBC9",
/* pixels */
"                                ",
"                                ",
"        ##  ##    ##  ##        ",
"        ##  ##    ##  ##        ",
"        ##  ##    ##  ##        ",
"        ##  ##    ##  ##        ",
"      ####################      ",
"      ####################      ",
"  ######                ######  ",
"  ######                ######  ",
"      ##                ##      ",
"      ##                ##      ",
"  ######    ,,    ,>    ######  ",
"  ####XX    >,    >>    ######  ",
"      XX                ##      ",
"      &&                ##      ",
"      --                ##      ",
"      ,,                ##      ",
"  >>,,,,    ,,    ,>    ######  ",
"  >>>>>>    >>    >>    ######  ",
"      ,>                ##      ",
"      >>                ##      ",
"  ,>>>>,                ######  ",
"  >>>>,:                ######  ",
"      <;*XX###############      ",
"      1=%XX###############      ",
"        $@  ##    ##  ##        ",
"        ##  ##    ##  ##        ",
"        ##  ##    ##  ##        ",
"        ##  ##    ##  ##        ",
"                                ",
"                                "
};
