/* XPM */
static char *cpu_4[] = {
/* columns rows colors chars-per-pixel */
"32 32 27 1 ",
"  c None",
". c #6D757D",
"X c #6D767E",
"o c #6E767E",
"O c #6E767F",
"+ c #6E777F",
"@ c #6F777F",
"# c #6F7780",
"$ c #707880",
"% c #767E85",
"& c #80878D",
"* c #81888E",
"= c #898F94",
"- c #8A9095",
"; c #ABB0B1",
": c #ACB1B2",
"> c #B4B8B8",
", c #B5B9B9",
"< c #BFC2C1",
"1 c #C5C8C6",
"2 c #C6C9C6",
"3 c #C6C9C7",
"4 c #C7C9C7",
"5 c #C7CAC7",
"6 c #C7CAC8",
"7 c #C8CAC8",
"8 c #C8CBC9",
/* pixels */
"                                ",
"                                ",
"        11  11    11  11        ",
"        11  11    11  11        ",
"        11  11    11  11        ",
"        11  11    11  1<        ",
"      11111111111111166>-.      ",
"      11111111111111117;*.      ",
"  111111                %$$$$$  ",
"  111111                $$$$$$  ",
"      11                $$      ",
"      11                $$      ",
"  111111    11    11    $$$$$$  ",
"  111111    11    11    $$$$$$  ",
"      11                $$      ",
"      11                $$      ",
"      11                $$      ",
"      11                $$      ",
"  111111    11    11    $$$$$$  ",
"  111111    11    11    $$$$$$  ",
"      11                $$      ",
"      11                $$      ",
"  111111                $$$$$$  ",
"  11111<                $$$$$$  ",
"      6>-.$$$$$$$$$$$$$$$$      ",
"      8:*.$$$$$$$$$$$$$$$$      ",
"        %$  $$    $$  $$        ",
"        $$  $$    $$  $$        ",
"        $$  $$    $$  $$        ",
"        $$  $$    $$  $$        ",
"                                ",
"                                "
};
