/* XPM */
static char *cpu_8[] = {
/* columns rows colors chars-per-pixel */
"32 32 42 1 ",
"  c None",
". c #A43E3E",
"X c #A43F3F",
"o c #A33F41",
"O c #A43F40",
"+ c #A54040",
"@ c #A44041",
"# c #A54141",
"$ c #A54142",
"% c #A54242",
"& c #A94844",
"* c #A74C4C",
"= c #B05147",
"- c #B65A4B",
"; c #AB5D5D",
": c #AF6B6A",
"> c #CC7A56",
", c #D38359",
"< c #DA8D5D",
"1 c #DF915B",
"2 c #DF925D",
"3 c #DE935E",
"4 c #DE935F",
"5 c #DE945F",
"6 c #DF945F",
"7 c #DF9560",
"8 c #DC9766",
"9 c #D99D73",
"0 c #D7A27D",
"q c #BCA19F",
"w c #BFAEAD",
"e c #CDB8A7",
"r c #CABDB1",
"t c #C3BFBD",
"y c #C7C4BE",
"u c #C5C8C6",
"i c #C5C8C7",
"p c #C5C9C7",
"a c #C5C9C8",
"s c #C4CAC9",
"d c #C6CBC9",
"f c #C6CECB",
/* pixels */
"                                ",
"                                ",
"        uu  uu    uu  uu        ",
"        uu  uu    uu  uu        ",
"        uu  uu    uu  uu        ",
"        uu  uu    uu  uu        ",
"      uuuuuuuuuuuuuuuuar01      ",
"      uuuuuuuuuuuuuuuaae92      ",
"  uuuuuu                82772<  ",
"  uuuuuu                777277  ",
"      uu                27      ",
"      uu                77      ",
"  uuuuuu    %%    %%    737277  ",
"  uuuuuu    %%    %%    <77777  ",
"      uu                77      ",
"      uu                77      ",
"      uu                27      ",
"      uu                77      ",
"  uuuuuu    %%    %%    27<772  ",
"  uuuuuu    %%    %%    777777  ",
"      uu                72      ",
"      uu                77      ",
"  uuuuuu                777727  ",
"  uuuuut                >,<777  ",
"      dw:.O%%%%%%%%%%%%&=-      ",
"      uw;O%%%%%%%%%%%%%%oo      ",
"        *%  %%    %%  %%        ",
"        %%  %%    %%  %%        ",
"        %%  %%    %%  %%        ",
"        %%  %%    %%  %%        ",
"                                ",
"                                "
};
