/* XPM */
static char *cpu_2[] = {
/* columns rows colors chars-per-pixel */
"32 32 25 1 ",
"  c None",
". c #6D757E",
"X c #6D767E",
"o c #6E767E",
"O c #6E767F",
"+ c #6E777F",
"@ c #6F777F",
"# c #6F7780",
"$ c #707880",
"% c #767D85",
"& c #767E85",
"* c #80878D",
"= c #81888E",
"- c #899095",
"; c #8A9095",
": c #ABAFB0",
"> c #ACB1B2",
", c #B4B8B8",
"< c #B5B9B9",
"1 c #BFC2C1",
"2 c #C5C8C6",
"3 c #C6C9C7",
"4 c #C7CAC7",
"5 c #C7CAC8",
"6 c #C8CBC9",
/* pixels */
"                                ",
"                                ",
"        $$  $$    $$  $$        ",
"        $$  $$    $$  $$        ",
"        $$  $$    $$  $$        ",
"        $$  $$    $$  $$        ",
"      ..$$$$$$$$$$$$$$$$$$      ",
"      ;*&.$$$$$$$$$$$$$$$$      ",
"  2222,:                $$$$$$  ",
"  222222                $$$$$$  ",
"      52                $$      ",
"      22                $$      ",
"  222222    22    22    $$$$$$  ",
"  222222    22    22    $$$$$$  ",
"      22                $$      ",
"      22                $$      ",
"      22                $$      ",
"      22                $$      ",
"  222222    22    22    $$$$$$  ",
"  222222    22    22    $$$$$$  ",
"      22                $$      ",
"      22                $$      ",
"  222222                $$$$$$  ",
"  222222                $$$$$$  ",
"      5<;..$$$$$$$$$$$$$$$      ",
"      6>=.$$$$$$$$$$$$$$$$      ",
"        &$  $$    $$  $$        ",
"        $$  $$    $$  $$        ",
"        $$  $$    $$  $$        ",
"        $$  $$    $$  $$        ",
"                                ",
"                                "
};
