/* XPM */
static char * battery_idle_7_xpm[] = {
"48 32 3 1",
" 	c None",
".	c #707880",
"+	c #373B41",
"                                                ",
"                                                ",
"  ........................................      ",
"  ........................................      ",
"  ..                                    ..      ",
"  ..                                    ..      ",
"  ..  ++++++++++++++++++++++++++++      ..      ",
"  ..  ++++++++++++++++++++++++++++      ..      ",
"  ..  ++++++++++++++++++++++++++++      ......  ",
"  ..  ++++++++++++++++++++++++++++      ......  ",
"  ..  ++++++++++++++++++++++++++++          ..  ",
"  ..  ++++++++++++++++++++++++++++          ..  ",
"  ..  ++++++++++++++++++++++++++++          ..  ",
"  ..  ++++++++++++++++++++++++++++          ..  ",
"  ..  ++++++++++++++++++++++++++++          ..  ",
"  ..  ++++++++++++++++++++++++++++          ..  ",
"  ..  ++++++++++++++++++++++++++++          ..  ",
"  ..  ++++++++++++++++++++++++++++          ..  ",
"  ..  ++++++++++++++++++++++++++++          ..  ",
"  ..  ++++++++++++++++++++++++++++          ..  ",
"  ..  ++++++++++++++++++++++++++++          ..  ",
"  ..  ++++++++++++++++++++++++++++          ..  ",
"  ..  ++++++++++++++++++++++++++++      ......  ",
"  ..  ++++++++++++++++++++++++++++      ......  ",
"  ..  ++++++++++++++++++++++++++++      ..      ",
"  ..  ++++++++++++++++++++++++++++      ..      ",
"  ..                                    ..      ",
"  ..                                    ..      ",
"  ........................................      ",
"  ........................................      ",
"                                                ",
"                                                "};
