/* XPM */
static char * battery_idle_0_xpm[] = {
"48 32 2 1",
" 	c None",
".	c #707880",
"                                                ",
"                                                ",
"  ........................................      ",
"  ........................................      ",
"  ..                                    ..      ",
"  ..                                    ..      ",
"  ..                                    ..      ",
"  ..                                    ..      ",
"  ..                                    ......  ",
"  ..                                    ......  ",
"  ..                                        ..  ",
"  ..                                        ..  ",
"  ..                                        ..  ",
"  ..                                        ..  ",
"  ..                                        ..  ",
"  ..                                        ..  ",
"  ..                                        ..  ",
"  ..                                        ..  ",
"  ..                                        ..  ",
"  ..                                        ..  ",
"  ..                                        ..  ",
"  ..                                        ..  ",
"  ..                                    ......  ",
"  ..                                    ......  ",
"  ..                                    ..      ",
"  ..                                    ..      ",
"  ..                                    ..      ",
"  ..                                    ..      ",
"  ........................................      ",
"  ........................................      ",
"                                                ",
"                                                "};
