/* XPM */
static char * linux_xpm[] = {
"46 53 48 1",
" 	c None",
".	c #575757",
"+	c #565656",
"@	c #636363",
"#	c #868686",
"$	c #7C7C7C",
"%	c #6C6C6C",
"&	c #535353",
"*	c #6F6F6F",
"=	c #696969",
"-	c #787878",
";	c #838383",
">	c #7F7F7F",
",	c #6E6E6E",
"'	c #676767",
")	c #555555",
"!	c #737373",
"~	c #6D6D6D",
"{	c #5F5F5F",
"]	c #818181",
"^	c #6B6B6B",
"/	c #606060",
"(	c #616161",
"_	c #777777",
":	c #595959",
"<	c #666666",
"[	c #828282",
"}	c #707070",
"|	c #717171",
"1	c #5A5A5A",
"2	c #727272",
"3	c #797979",
"4	c #5D5D5D",
"5	c #7B7B7B",
"6	c #7A7A7A",
"7	c #585858",
"8	c #6A6A6A",
"9	c #5E5E5E",
"0	c #626262",
"a	c #808080",
"b	c #767676",
"c	c #545454",
"d	c #5C5C5C",
"e	c #757575",
"f	c #656565",
"g	c #5B5B5B",
"h	c #747474",
"i	c #646464",
"                                              ",
"                                              ",
"                                              ",
"                                              ",
"                                              ",
"                                              ",
"                                              ",
"                      .+                      ",
"                   @#####$                    ",
"                  %########                   ",
"                 &#########*                  ",
"                 =##########                  ",
"                 -#####;####                  ",
"                 >,&##'  ###)                 ",
"                 > .=# !&~##{                 ",
"                 $)]^$.#{'##/                 ",
"                 -==   =(]##(                 ",
"                 _:      _##<                 ",
"                 [&    & }##|                 ",
"                 #*+&&  1&###                 ",
"                /#&&.&&   [##%                ",
"                ##        '###)               ",
"               2#3         ####               ",
"              /##4         5###6              ",
"              ###          7#$##<             ",
"             5##8           ]#>##             ",
"            1#$#            1#5##,            ",
"            [#[|             #>[##            ",
"           )#!#+             ~#=##{           ",
"           *#'#              )#{##|           ",
"           [#/$               90##a           ",
"           ##^7              |#b%#]           ",
"           ###              :####!b           ",
"          9c '#.           &1]###3b           ",
"         0d   e#=          ' +#a&  '          ",
"       c'      ##~         @       =          ",
"       '       ~##:        f       )&         ",
"       '        ##'        '        %         ",
"       8        c!        cg         g        ",
"       '         (c       6         0&        ",
"       @          ;6g&&{h#]       &^&         ",
"       ,          }#######e      %:           ",
"        (<<=&     6^/)c+d(!     %             ",
"            )'@d4~         i  )^              ",
"                            0f&               ",
"                                              ",
"                                              ",
"                                              ",
"                                              ",
"                                              ",
"                                              ",
"                                              ",
"                                              "};
