/* XPM */
static char *wireless_6[] = {
/* columns rows colors chars-per-pixel */
"32 32 6 1 ",
"  c None",
". c #363A40",
"X c #373B41",
"o c #707880",
"O c #717981",
"+ c #717A82",
/* pixels */
"                                ",
"                                ",
"                                ",
"                                ",
"                                ",
"                                ",
"                      XXXX      ",
"                      XXXX      ",
"                      XXXX      ",
"                      XXXX      ",
"                      XXXX      ",
"                      XXXX      ",
"                oooo  XXXX      ",
"                oooo  .XXX      ",
"                oooo  XXXX      ",
"                oooo  .XXX      ",
"                ooo+  XXXX      ",
"                ooo+  .XXX      ",
"          oooo  ooo+  XXXX      ",
"          oooo  oooo  .XXX      ",
"          oooo  oooo  XXXX      ",
"          oooo  ooo+  XXXX      ",
"          oooo  ooo+  XXXX      ",
"          oooo  ooo+  XXXX      ",
"    oooo  oooo  oooo  .XXX      ",
"    oooo  oooo  oooo  .XXX      ",
"    oooo  oooo  oooo  .XXX      ",
"    oooo  oooo  oooo  .XXX      ",
"    oooo  oooo  ooo+  XXXX      ",
"    oooo  oooo  ooo+  .XXX      ",
"                                ",
"                                "
};
