/* XPM */
static char *wireless_8[] = {
/* columns rows colors chars-per-pixel */
"32 32 2 1 ",
"  c None",
". c #707880",
/* pixels */
"                                ",
"                                ",
"                                ",
"                                ",
"                                ",
"                                ",
"                      ....      ",
"                      ....      ",
"                      ....      ",
"                      ....      ",
"                      ....      ",
"                      ....      ",
"                ....  ....      ",
"                ....  ....      ",
"                ....  ....      ",
"                ....  ....      ",
"                ....  ....      ",
"                ....  ....      ",
"          ....  ....  ....      ",
"          ....  ....  ....      ",
"          ....  ....  ....      ",
"          ....  ....  ....      ",
"          ....  ....  ....      ",
"          ....  ....  ....      ",
"    ....  ....  ....  ....      ",
"    ....  ....  ....  ....      ",
"    ....  ....  ....  ....      ",
"    ....  ....  ....  ....      ",
"    ....  ....  ....  ....      ",
"    ....  ....  ....  ....      ",
"                                ",
"                                "
};
