/* XPM */
static char *wireless_5[] = {
/* columns rows colors chars-per-pixel */
"32 32 10 1 ",
"  c None",
". c #363A41",
"X c #373B41",
"o c #545755",
"O c #555855",
"+ c #555856",
"@ c #565956",
"# c #565957",
"$ c #707880",
"% c #717981",
/* pixels */
"                                ",
"                                ",
"                                ",
"                                ",
"                                ",
"                                ",
"                      XXXX      ",
"                      XXXX      ",
"                      XXXX      ",
"                      XXXX      ",
"                      XXXX      ",
"                      XXXX      ",
"                ++++  XXXX      ",
"                ++++  XXXX      ",
"                ++++  XXXX      ",
"                ++++  XXXX      ",
"                ++++  XXXX      ",
"                +++#  XXXX      ",
"          %%%%  ++++  XXXX      ",
"          %%%%  +++#  XXXX      ",
"          %%%%  ++++  XXXX      ",
"          %%%%  ++++  XXXX      ",
"          %%%%  ++++  XXXX      ",
"          %%%%  o+++  XXXX      ",
"    %%%%  %%%%  ++++  XXXX      ",
"    %%%%  %%%%  ++++  XXXX      ",
"    %%%%  %%%%  ++++  XXXX      ",
"    %%%%  %%%%  ++++  XXXX      ",
"    %%%%  %%%%  o+++  XXXX      ",
"    #%%%  %#%%  o+++  XXXX      ",
"                                ",
"                                "
};
