/* XPM */
static char *wireless_2[] = {
/* columns rows colors chars-per-pixel */
"32 32 6 1 ",
"  c None",
". c #363A40",
"X c #373B41",
"o c #707880",
"O c #717981",
"+ c #717A82",
/* pixels */
"                                ",
"                                ",
"                                ",
"                                ",
"                                ",
"                                ",
"                      XXXX      ",
"                      XXXX      ",
"                      XXXX      ",
"                      XXXX      ",
"                      XXXX      ",
"                      XXXX      ",
"                XXXX  XXXX      ",
"                XXXX  XXXX      ",
"                XXXX  XXXX      ",
"                XXXX  XXXX      ",
"                XXXX  XXXX      ",
"                XXXX  XXXX      ",
"          XXXX  XXXX  XXXX      ",
"          XXXX  XXXX  XXXX      ",
"          XXXX  XXXX  XXXX      ",
"          XXXX  XXXX  XXXX      ",
"          XXXX  XXXX  XXXX      ",
"          XXXX  XXXX  XXXX      ",
"    oooo  XXXX  XXXX  XXXX      ",
"    oooo  .XXX  XXXX  XXXX      ",
"    oooo  .XXX  XXXX  XXXX      ",
"    oooo  .XXX  XXXX  XXXX      ",
"    ooo+  XXXX  XXXX  XXXX      ",
"    ooo+  .XXX  XXXX  XXXX      ",
"                                ",
"                                "
};
