/* XPM */
static char *wireless_4[] = {
/* columns rows colors chars-per-pixel */
"32 32 6 1 ",
"  c None",
". c #363A40",
"X c #373B41",
"o c #707880",
"O c #717981",
"+ c #717A82",
/* pixels */
"                                ",
"                                ",
"                                ",
"                                ",
"                                ",
"                                ",
"                      XXXX      ",
"                      XXXX      ",
"                      XXXX      ",
"                      XXXX      ",
"                      XXXX      ",
"                      XXXX      ",
"                XXXX  XXXX      ",
"                XXXX  XXXX      ",
"                XXXX  XXXX      ",
"                XXXX  XXXX      ",
"                XXXX  XXXX      ",
"                XXXX  XXXX      ",
"          ooOO  XXXX  XXXX      ",
"          ooOO  .XXX  XXXX      ",
"          OooO  .XXX  XXXX      ",
"          oooO  .XXX  XXXX      ",
"          oooO  .XXX  XXXX      ",
"          ooOO  .XXX  XXXX      ",
"    Oooo  OooO  XXXX  XXXX      ",
"    oooo  oooO  .XXX  XXXX      ",
"    oooo  oooO  .XXX  XXXX      ",
"    oooo  oooO  .XXX  XXXX      ",
"    oooo  OoOO  .XXX  XXXX      ",
"    oooo  oooO  .XXX  XXXX      ",
"                                ",
"                                "
};
