/* XPM */
static char *wireless_1[] = {
/* columns rows colors chars-per-pixel */
"32 32 2 1 ",
"  c None",
". c #373B41",
/* pixels */
"                                ",
"                                ",
"                                ",
"                                ",
"                                ",
"                                ",
"                      ....      ",
"                      ....      ",
"                      ....      ",
"                      ....      ",
"                      ....      ",
"                      ....      ",
"                ....  ....      ",
"                ....  ....      ",
"                ....  ....      ",
"                ....  ....      ",
"                ....  ....      ",
"                ....  ....      ",
"          ....  ....  ....      ",
"          ....  ....  ....      ",
"          ....  ....  ....      ",
"          ....  ....  ....      ",
"          ....  ....  ....      ",
"          ....  ....  ....      ",
"    ....  ....  ....  ....      ",
"    ....  ....  ....  ....      ",
"    ....  ....  ....  ....      ",
"    ....  ....  ....  ....      ",
"    ....  ....  ....  ....      ",
"    ....  ....  ....  ....      ",
"                                ",
"                                "
};
