/* XPM */
static char *volume_1[] = {
/* columns rows colors chars-per-pixel */
"32 32 28 1 ",
"  c None",
". c #535552",
"X c #535653",
"o c #545755",
"O c #555856",
"+ c #5A5E5E",
"@ c #5B5F5F",
"# c #5B6060",
"$ c #5C6061",
"% c #606568",
"& c #606668",
"* c #616668",
"= c #656B6E",
"- c #656B6F",
"; c #6A7076",
": c #6A7177",
"> c #6B7278",
", c #6B7279",
"< c #6B7379",
"1 c #6E757D",
"2 c #6F767E",
"3 c #6F777E",
"4 c #707880",
"5 c #707881",
"6 c #707981",
"7 c #717981",
"8 c #717982",
"9 c #717A82",
/* pixels */
"                    Oo          ",
"                    +$          ",
"                  o+-<          ",
"                  +&<9          ",
"                .+-<44          ",
"                +&<444          ",
"              o+-<3444          ",
"              +&<44444          ",
"            o+-<344444          ",
"            +&<4444444          ",
"    4444  .+-<44444444  oO      ",
"    4444  $&<444444444  oO      ",
"    444441<<1444444444    OO    ",
"    444444444444444444    OO    ",
"    444444444444444444    OO    ",
"    444444444444444444    OO    ",
"    444444444444444444    OO    ",
"    444444444444444444    OO    ",
"    444444444444444444  OO      ",
"    444441<<4444444444  OO      ",
"    4444  $&<444444444          ",
"    4444  o+-<14444444          ",
"            +&<4444444          ",
"            o+-<444444          ",
"              +&<44444          ",
"              .+-<4444          ",
"                #&<444          ",
"                o+-<44          ",
"                  +&<4          ",
"                  o+-;          ",
"                    +$          ",
"                    oo          "
};
