/* XPM */
static char *volume_4[] = {
/* columns rows colors chars-per-pixel */
"32 32 29 1 ",
"  c None",
". c #535552",
"X c #535653",
"o c #545755",
"O c #555855",
"+ c #555856",
"@ c #5A5E5E",
"# c #5B5F5F",
"$ c #5B6060",
"% c #5C6061",
"& c #606568",
"* c #606668",
"= c #616668",
"- c #656B6E",
"; c #656B6F",
": c #6A7076",
"> c #6A7177",
", c #6B7278",
"< c #6B7279",
"1 c #6B7379",
"2 c #6E757D",
"3 c #6F767E",
"4 c #6F777E",
"5 c #707880",
"6 c #707881",
"7 c #707981",
"8 c #717981",
"9 c #717982",
"0 c #717A82",
/* pixels */
"                    oo          ",
"                    @%          ",
"                  X@;<          ",
"                  @&10          ",
"                o@;155    ++    ",
"                @&1055    ++    ",
"              o@-12555      ++  ",
"              @&<55555      ++  ",
"            o@-1555555  55    ++",
"            $&<5555555  55    ++",
"    5555  X@;155555555    55  ++",
"    5555  %&1555555555    55  ++",
"    555552<<2555555555    55  ++",
"    555555555555555555    55  o+",
"    555555555555555555    55  o+",
"    555555555555555555    55  ++",
"    555555555555555555    55  ++",
"    555555555555555555    55  ++",
"    555555555555555555    55  ++",
"    555552<12555555555    55  ++",
"    5555  %&<555555555  55    ++",
"    5555  X$-<55555555  55    ++",
"            @&15555555      ++  ",
"            o@-<455555      ++  ",
"              @&155555    ++    ",
"              X@;15555    ++    ",
"                %&1555          ",
"                o@;155          ",
"                  @&15          ",
"                  o@-:          ",
"                    @%          ",
"                    ++          "
};
