/* XPM */
static char *volume_7[] = {
/* columns rows colors chars-per-pixel */
"32 32 30 1 ",
"  c None",
". c #535552",
"X c #535653",
"o c #545755",
"O c #5A5E5E",
"+ c #5B5F5F",
"@ c #5B6060",
"# c #5C6061",
"$ c #606568",
"% c #606668",
"& c #616668",
"* c #656B6E",
"= c #656B6F",
"- c #6A7076",
"; c #6A7177",
": c #6B7278",
"> c #6B7279",
", c #6B7379",
"< c #6E757D",
"1 c #6F767E",
"2 c #6F777E",
"3 c #A64140",
"4 c #A54242",
"5 c #6F7981",
"6 c #707880",
"7 c #707881",
"8 c #707981",
"9 c #717981",
"0 c #717982",
"q c #717A82",
/* pixels */
"                    oo          ",
"                    @@          ",
"                  oO=>    44    ",
"                  O%,q    44    ",
"                oO=,66      44  ",
"                O$,666      44  ",
"              oO=,<66q  44    44",
"              O%>66666  44    44",
"            oO=,266666    44  44",
"            O%,6666666    44  44",
"    6666  .O=,66666666    44  44",
"    6666  #%,666666666    44  44",
"    66666<,><666666666    44  44",
"    666666666666666666    44  44",
"    666666666666666666    44  44",
"    666666666666666666    44  44",
"    666666666666666666    44  44",
"    666666666666666666    44  44",
"    666666666666666666    44  44",
"    66666<->6666666666    44  44",
"    6666  #%>666666666    44  44",
"    6666  .@=>26666666    44  44",
"            O%,6666666    44  44",
"            oO=>266666    44  44",
"              O%,q6666  34    44",
"              XO=,6666  34    44",
"                @%,666      44  ",
"                XO=,66      44  ",
"                  O%,6    44    ",
"                  oO=-    44    ",
"                    @#          ",
"                    oo          "
};
