/* XPM */
static char *ram_1[] = {
/* columns rows colors chars-per-pixel */
"48 32 17 1 ",
"  c None",
". c #777F70",
"X c #777F71",
"o c #757D73",
"O c #757D74",
"+ c #727A7C",
"@ c #8D953E",
"# c #8C943F",
"$ c #8D953F",
"% c #858D4F",
"& c #8C9440",
"* c #858D50",
"= c #848C53",
"- c #6F7781",
"; c #6F7782",
": c #707880",
"> c #707881",
/* pixels */
"                                                ",
"                                                ",
"    ::::::::::::::::::::::::::::::::::::::::    ",
"    ::::::::::::::::::::::::::::::::::::::::    ",
"  ::                                        ::  ",
"  ::                                        ::  ",
"  ::                                        ::  ",
"  ::                                        ::  ",
"  ::                                      ::::  ",
"  ::                                      ::::  ",
"  ::    &&&&&&  &&&&&&  &&&&&&  &&&&&$  ::      ",
"  ::    &&&&&&  &&&&&&  &&&&&&  &&&&&$  ::      ",
"  ::    &&  &&  &&  &&  &&  &&  &&  &&  -:      ",
"  ::    &&  &&  &&  &&  &&  &&  &&  &&  -:      ",
"  ::    &&&&&&  &&&&&&  &&&&&&  &&&&&$  -:      ",
"  ::    &&&&&&  &&&&&&  &&&&&&  &&&&&$  -:      ",
"  ::                                      ::::  ",
"  ::                                      ::::  ",
"  ::                                        ::  ",
"  ::                                        ::  ",
"  ::                                        ::  ",
"  ::                                        ::  ",
"  ::                        ::::            ::  ",
"  ::                        ::::            ::  ",
"  :-  $$  -:  ::  ::  ::  ::    ::  ::  ::  ::  ",
"  :-  $$  -:  ::  ::  ::  ::    ::  ::  ::  ::  ",
"  :-  $$  ::  ::  ::  ::  ::    ::  ::  ::  ::  ",
"  :+  $$  +:  ::  ::  ::  ::    ::  ::  ::  ::  ",
"  :o=$$$$=o:::::::::::::::::    ::::::::::::::  ",
"  :o=$$$$%o:-:::::::::::::::    ::::::::::::::  ",
"                                                ",
"                                                "
};
