/* XPM */
static char *ram_7[] = {
/* columns rows colors chars-per-pixel */
"48 32 47 1 ",
"  c None",
". c #7D6B71",
"X c #7A6D74",
"o c #777F71",
"O c #757D74",
"+ c #73757C",
"@ c #727A7C",
"# c #A43F40",
"$ c #A63F40",
"% c #994F51",
"& c #955254",
"* c #A54040",
"= c #A44041",
"- c #A64041",
"; c #A64141",
": c #A54242",
"> c #A94744",
", c #B05248",
"< c #B35649",
"1 c #CD7B56",
"2 c #8A943F",
"3 c #8B943F",
"4 c #8D953E",
"5 c #8C943F",
"6 c #8D953F",
"7 c #8B9440",
"8 c #8C9440",
"9 c #9F9447",
"0 c #858D50",
"q c #848C53",
"w c #A49449",
"e c #D18058",
"r c #CA9357",
"t c #CE9359",
"y c #D9935D",
"u c #DE935F",
"i c #DF935F",
"p c #DF945F",
"a c #DF9460",
"s c #DF9560",
"d c #E09360",
"f c #E09560",
"g c #6F7781",
"h c #6F7782",
"j c #6F7981",
"k c #707880",
"l c #707881",
/* pixels */
"                                                ",
"                                                ",
"    kkkkkkkkkkkkkkkkkkkkkkkkkkkkkkkkkkkkkkkk    ",
"    kkkkkkkkkkkkkkkkkkkkkkkkkkkkkkkkkkkkkkkk    ",
"  kk                                        kk  ",
"  kk                                        kk  ",
"  kk                                        kk  ",
"  kk                                        kk  ",
"  kk                                      kkkk  ",
"  kk                                      kkkk  ",
"  kk    ::::::  ::::::  ::::::  :::::;  jk      ",
"  kk    ::::::  ::::::  ::::::  :::::;  jk      ",
"  kk    ::  ::  ::  ::  ::  ::  ::  ::  jk      ",
"  kk    ::  ::  ::  ::  ::  ::  ::  ::  jk      ",
"  kk    ::::::  ::::::  ::::::  ::::::  jk      ",
"  kk    ::::::  ::::::  ::::::  :::::$  jk      ",
"  kk                                      kkkk  ",
"  kk                                      kkkk  ",
"  kk                                        kk  ",
"  kk                                        kk  ",
"  kk                                        kk  ",
"  kk                                        kk  ",
"  kk                        uuuu            kk  ",
"  kk                        uuuu            kk  ",
"  kg  48  88  88  87  du  uu    ua  ::  jk  kk  ",
"  kg  48  88  88  82  du  uu    pa  $:  jk  kk  ",
"  kg  48  88  88  87  uu  uu    ua  #$  jk  kk  ",
"  k@  88  88  88  87  yu  uu    ua  >:  +k  kk  ",
"  gOq4488888888888872wtuuuuu    uaa1,$$&Xjjkkk  ",
"  ho04888888888888872wruduuu    uaae<$:%.jjkkk  ",
"                                                ",
"                                                "
};
