/* XPM */
static char *ram_5[] = {
/* columns rows colors chars-per-pixel */
"48 32 35 1 ",
"  c None",
". c #777F71",
"X c #757D74",
"o c #727A7C",
"O c #887E79",
"+ c #8A7E78",
"@ c #8A943F",
"# c #8B943F",
"$ c #8D953E",
"% c #8C943F",
"& c #8D953F",
"* c #8B9440",
"= c #8C9440",
"- c #9F9447",
"; c #858D50",
": c #848C53",
"> c #A49449",
", c #CA9357",
"< c #CE9359",
"1 c #D9935D",
"2 c #DE935F",
"3 c #DF935F",
"4 c #E0935F",
"5 c #E0945E",
"6 c #E1945E",
"7 c #C28C67",
"8 c #E09360",
"9 c #6A7782",
"0 c #6D7781",
"q c #6E7781",
"w c #6F7781",
"e c #6F7782",
"r c #6F7880",
"t c #707880",
"y c #707881",
/* pixels */
"                                                ",
"                                                ",
"    tttttttttttttttttttttttttttttttttttttttt    ",
"    tttttttttttttttttttttttttttttttttttttttt    ",
"  tt                                        tt  ",
"  tt                                        tt  ",
"  tt                                        tt  ",
"  tt                                        tt  ",
"  tt                                      tttt  ",
"  tt                                      tttt  ",
"  tt    222222  222222  222222  222325  0t      ",
"  tt    222222  222222  222222  222325  rt      ",
"  tt    22  22  22  22  22  22  22  85  0t      ",
"  tt    22  22  22  22  22  22  22  88  rt      ",
"  tt    222222  222222  222222  223323  0t      ",
"  tt    222222  222222  222222  223333  rt      ",
"  tt                                      tttt  ",
"  tt                                      tttt  ",
"  tt                                        tt  ",
"  tt                                        tt  ",
"  tt                                        tt  ",
"  tt                                        tt  ",
"  tt                        tttt            tt  ",
"  tt                        rttt            tt  ",
"  tt  &=  ==  ==  =@  85  90    tt  tt  tt  tt  ",
"  tw  ==  ==  ==  =*  84  ++    tt  tt  tt  tt  ",
"  t0  &=  ==  ==  =@  82  77    tt  tt  tt  tt  ",
"  to  &=  ==  ==  =@  12  55    tt  tt  tt  tt  ",
"  tX:&&============*@><24224    tttttttttttttt  ",
"  w.;&&============*@>,28222    tttttttttttttt  ",
"                                                ",
"                                                "
};
