/* XPM */
static char *ram_8[] = {
/* columns rows colors chars-per-pixel */
"48 32 48 1 ",
"  c None",
". c #7D6B71",
"X c #7A6E74",
"o c #777F71",
"O c #757D74",
"+ c #73757C",
"@ c #727A7C",
"# c #984F51",
"$ c #955255",
"% c #A44041",
"& c #A64040",
"* c #A64140",
"= c #A64141",
"- c #A44142",
"; c #A54142",
": c #A54242",
"> c #A94744",
", c #B05248",
"< c #B35649",
"1 c #CD7B56",
"2 c #8A943F",
"3 c #8B943F",
"4 c #8D953E",
"5 c #8C943F",
"6 c #8D953F",
"7 c #8B9440",
"8 c #8C9440",
"9 c #9F9447",
"0 c #858D50",
"q c #848C53",
"w c #A49449",
"e c #D18058",
"r c #CA9357",
"t c #CE9359",
"y c #D9935D",
"u c #DE935F",
"i c #DF935F",
"p c #DF945F",
"a c #DF9460",
"s c #DF9560",
"d c #E09360",
"f c #E09560",
"g c #6F7781",
"h c #6F7782",
"j c #6F7981",
"k c #6E7A82",
"l c #707880",
"z c #707881",
/* pixels */
"                                                ",
"                                                ",
"    llllllllllllllllllllllllllllllllllllllll    ",
"    llllllllllllllllllllllllllllllllllllllll    ",
"  ll                                        ll  ",
"  ll                                        ll  ",
"  ll                                        ll  ",
"  ll                                        ll  ",
"  ll                                      llll  ",
"  ll                                      llll  ",
"  ll    ::::::  ::::::  ::::::  :::::&  kl      ",
"  ll    ::::::  ::::::  ::::::  ::::::  kl      ",
"  ll    ::  ::  ::  ::  ::  ::  ::  ::  lh      ",
"  ll    ::  ::  ::  ::  ::  ::  ::  ::  k@      ",
"  ll    ::::::  ::::::  ::::::  :::::&  kl      ",
"  ll    ::::::  ::::::  ::::::  :::::&  kl      ",
"  ll                                      llll  ",
"  ll                                      llll  ",
"  ll                                        ll  ",
"  ll                                        ll  ",
"  ll                                        ll  ",
"  ll                                        ll  ",
"  ll                        uuuu            ll  ",
"  ll                        uuuu            ll  ",
"  ll  68  88  88  82  du  uu    us  ::  ::  ll  ",
"  lh  68  88  88  87  du  uu    us  ::  ::  kl  ",
"  lh  68  88  88  82  du  uu    up  %:  :&  kl  ",
"  l@  68  88  88  82  yu  uu    uf  >:  ::  +l  ",
"  hOq6688888888888872wtuuuuu    usf1,%::::&$Xk  ",
"  ho06688888888888872wruduuu    usse<%:::&&#.k  ",
"                                                ",
"                                                "
};
