/* XPM */
static char *ram_6[] = {
/* columns rows colors chars-per-pixel */
"48 32 39 1 ",
"  c None",
". c #777F71",
"X c #757D74",
"o c #727A7C",
"O c #787A7E",
"+ c #857D7A",
"@ c #8B7F78",
"# c #8A943F",
"$ c #8B943F",
"% c #8D953E",
"& c #8C943F",
"* c #8D953F",
"= c #8B9440",
"- c #8C9440",
"; c #9F9447",
": c #858D50",
"> c #848C53",
", c #A49449",
"< c #BD8B69",
"1 c #CA9357",
"2 c #CE9359",
"3 c #D9935D",
"4 c #DE935F",
"5 c #DF935F",
"6 c #E0935F",
"7 c #E0945E",
"8 c #E1945E",
"9 c #E2945E",
"0 c #E3945E",
"q c #C38C67",
"w c #E09360",
"e c #6C7781",
"r c #6D7781",
"t c #6E7781",
"y c #6F7781",
"u c #6F7782",
"i c #6F7880",
"p c #707880",
"a c #707881",
/* pixels */
"                                                ",
"                                                ",
"    pppppppppppppppppppppppppppppppppppppppp    ",
"    pppppppppppppppppppppppppppppppppppppppp    ",
"  pp                                        pp  ",
"  pp                                        pp  ",
"  pp                                        pp  ",
"  pp                                        pp  ",
"  pp                                      pppp  ",
"  pp                                      pppp  ",
"  pp    444444  444444  444444  444446  ii      ",
"  pp    444444  444444  444444  444448  ip      ",
"  pp    44  44  44  44  44  44  44  46  ii      ",
"  pp    44  44  44  44  44  44  44  48  ii      ",
"  pp    444444  444444  444444  444448  ip      ",
"  pp    444444  444444  444444  444448  ip      ",
"  pp                                      pppp  ",
"  pp                                      pppp  ",
"  pp                                        pp  ",
"  pp                                        pp  ",
"  pp                                        pp  ",
"  pp                                        pp  ",
"  pp                        4444            pp  ",
"  pp                        4444            pp  ",
"  pp  &-  --  --  -=  w4  44    58  ip  pp  pp  ",
"  py  &-  --  --  -#  w4  44    88  ip  pp  pp  ",
"  py  &-  --  --  -=  44  44    88  ii  pp  pp  ",
"  po  &-  --  --  -=  34  44    q<  ii  pp  pp  ",
"  pX>&&------------=#,244444    @+Oipppppppppp  ",
"  u.:&&------------=#,14w444    uuiipppppppppp  ",
"                                                ",
"                                                "
};
