/* XPM */
static char *battery_on_5[] = {
/* columns rows colors chars-per-pixel */
"48 32 27 1 ",
"  c None",
". c #707880",
"X c #717880",
"o c #717981",
"O c #727A81",
"+ c #727A82",
"@ c #737B82",
"# c #757C84",
"$ c #757D84",
"% c #7A8188",
"& c #7B8288",
"* c #7C8389",
"= c #7F868B",
"- c #7F868C",
"; c #898F93",
": c #8A9094",
"> c #909699",
", c #91969A",
"< c #979C9F",
"1 c #9A9FA2",
"2 c #9BA0A2",
"3 c #9DA2A4",
"4 c #A2A6A8",
"5 c #A2A7A8",
"6 c #ADB1B1",
"7 c #BFC2C1",
"8 c #C5C8C6",
/* pixels */
"                                                ",
"                                                ",
"  ........................................      ",
"  ........................................      ",
"  ..                                    ..      ",
"  ..                                    ..      ",
"  ..  ....................              ..      ",
"  ..  ....................              ..      ",
"  ..  ................XX..              ......  ",
"  ..  ................XX..              ......  ",
"  ..  ...........XXX..*,25888888            ..  ",
"  ..  ...........#=>18888888888             ..  ",
"  ..  .......*,588888888888888              ..  ",
"  ..  ......88888888888888888               ..  ",
"  ..  ................*88888                ..  ",
"  ..  ................88888                 ..  ",
"  ..  ...............88888                  ..  ",
"  ..  ..............88888;                  ..  ",
"  ..  .............88888888888888888        ..  ",
"  ..  ............888888888888888           ..  ",
"  ..  ..........$88888888888                ..  ",
"  ..  ..........8888621:-=                  ..  ",
"  ..  ....................              ......  ",
"  ..  ....................              ......  ",
"  ..  ....................              ..      ",
"  ..  ....................              ..      ",
"  ..                                    ..      ",
"  ..                                    ..      ",
"  ........................................      ",
"  ........................................      ",
"                                                ",
"                                                "
};
