/* XPM */
static char *battery_on_4[] = {
/* columns rows colors chars-per-pixel */
"48 32 18 1 ",
"  c None",
". c #707880",
"X c #717880",
"o c #717981",
"O c #727A81",
"+ c #727A82",
"@ c #737B82",
"# c #757C84",
"$ c #757D84",
"% c #7A8188",
"& c #7F868B",
"* c #909699",
"= c #9A9FA2",
"- c #9DA2A4",
"; c #A2A6A8",
": c #ADB1B1",
"> c #BFC2C1",
", c #C5C8C6",
/* pixels */
"                                                ",
"                                                ",
"  ........................................      ",
"  ........................................      ",
"  ..                                    ..      ",
"  ..                                    ..      ",
"  ..  ................                  ..      ",
"  ..  ................                  ..      ",
"  ..  ................                  ......  ",
"  ..  ................                  ......  ",
"  ..  ........O.....O.   ,,,,,,,            ..  ",
"  ..  ............**=,,,,,,,,,,             ..  ",
"  ..  .......%*;,,,,,,,,,,,,,,              ..  ",
"  ..  ......,,,,,,,,,,,,,,,,,               ..  ",
"  ..  ................ ,,,,,                ..  ",
"  ..  ................,,,,,                 ..  ",
"  ..  ...............,,,,,                  ..  ",
"  ..  ..............,,,,,                   ..  ",
"  ..  .............,,,,,,,,,,,,,,,,,        ..  ",
"  ..  ............,,,,,,,,,,,,,,,           ..  ",
"  ..  ..........O,,,,,,,,,,,                ..  ",
"  ..  ..........,,,,:=                      ..  ",
"  ..  ................                  ......  ",
"  ..  ................                  ......  ",
"  ..  ................                  ..      ",
"  ..  ................                  ..      ",
"  ..                                    ..      ",
"  ..                                    ..      ",
"  ........................................      ",
"  ........................................      ",
"                                                ",
"                                                "
};
