/* XPM */
static char *battery_on_6[] = {
/* columns rows colors chars-per-pixel */
"48 32 31 1 ",
"  c None",
". c #707880",
"X c #717880",
"o c #717981",
"O c #727A81",
"+ c #727A82",
"@ c #737B82",
"# c #757C84",
"$ c #757D84",
"% c #767E85",
"& c #7A8188",
"* c #7B8288",
"= c #7C8389",
"- c #7F868B",
"; c #7F868C",
": c #898F93",
"> c #8A9094",
", c #909699",
"< c #91969A",
"1 c #94999D",
"2 c #979C9F",
"3 c #9A9FA2",
"4 c #9BA0A2",
"5 c #9DA2A4",
"6 c #A2A6A8",
"7 c #A2A7A8",
"8 c #ADB1B1",
"9 c #B4B8B8",
"0 c #B9BCBC",
"q c #BFC2C1",
"w c #C5C8C6",
/* pixels */
"                                                ",
"                                                ",
"  ........................................      ",
"  ........................................      ",
"  ..                                    ..      ",
"  ..                                    ..      ",
"  ..  ........................          ..      ",
"  ..  ........................          ..      ",
"  ..  ................XX......          ......  ",
"  ..  ................XX......          ......  ",
"  ..  ...........X....=<470wwwww            ..  ",
"  ..  ...........#-,3wwwwwwwwww             ..  ",
"  ..  .......=<7wwwwwwwwwwwwww              ..  ",
"  ..  ......wwwwwwwwwwwwwwwww.              ..  ",
"  ..  ................=wwwww..              ..  ",
"  ..  ................wwwww@..              ..  ",
"  ..  ..............Xwwwww....              ..  ",
"  ..  ..............wwwww:....              ..  ",
"  ..  ............@wwwwwwwwwwwwwwwww        ..  ",
"  ..  ............wwwwwwwwwwwwwww           ..  ",
"  ..  ..........#wwwwwwwwww951              ..  ",
"  ..  ..........wwww843:--&#..              ..  ",
"  ..  ........................          ......  ",
"  ..  ........................          ......  ",
"  ..  ........................          ..      ",
"  ..  ........................          ..      ",
"  ..                                    ..      ",
"  ..                                    ..      ",
"  ........................................      ",
"  ........................................      ",
"                                                ",
"                                                "
};
