/* XPM */
static char *battery_on_3[] = {
/* columns rows colors chars-per-pixel */
"48 32 12 1 ",
"  c None",
". c #707880",
"X c #717880",
"o c #717981",
"O c #727A82",
"+ c #737B82",
"@ c #757C84",
"# c #757D84",
"$ c #7A8188",
"% c #909699",
"& c #A2A6A8",
"* c #C5C8C6",
/* pixels */
"                                                ",
"                                                ",
"  ........................................      ",
"  ........................................      ",
"  ..                                    ..      ",
"  ..                                    ..      ",
"  ..  ............                      ..      ",
"  ..  ............                      ..      ",
"  ..  ............                      ......  ",
"  ..  ............                      ......  ",
"  ..  ........+..+       *******            ..  ",
"  ..  ..........+@   **********             ..  ",
"  ..  .......$%&**************              ..  ",
"  ..  ......*****************               ..  ",
"  ..  ............     *****                ..  ",
"  ..  ............    *****                 ..  ",
"  ..  ............   *****                  ..  ",
"  ..  ............  *****                   ..  ",
"  ..  ............ *****************        ..  ",
"  ..  ............***************           ..  ",
"  ..  ..........@***********                ..  ",
"  ..  ..........*****                       ..  ",
"  ..  ............                      ......  ",
"  ..  ............                      ......  ",
"  ..  ............                      ..      ",
"  ..  ............                      ..      ",
"  ..                                    ..      ",
"  ..                                    ..      ",
"  ........................................      ",
"  ........................................      ",
"                                                ",
"                                                "
};
