/* XPM */
static char *battery_on_8[] = {
/* columns rows colors chars-per-pixel */
"48 32 36 1 ",
"  c None",
". c #707880",
"X c #717880",
"o c #717981",
"O c #727A81",
"+ c #727A82",
"@ c #737B82",
"# c #737B83",
"$ c #757C84",
"% c #757D84",
"& c #767E85",
"* c #777E85",
"= c #7A8188",
"- c #7B8288",
"; c #7C8389",
": c #7F868B",
"> c #7F868C",
", c #868C91",
"< c #898F93",
"1 c #8A9094",
"2 c #8D9296",
"3 c #909699",
"4 c #91969A",
"5 c #94999D",
"6 c #979C9F",
"7 c #9A9FA2",
"8 c #9BA0A2",
"9 c #9DA2A4",
"0 c #9EA2A4",
"q c #A2A6A8",
"w c #A2A7A8",
"e c #ADB1B1",
"r c #B4B8B8",
"t c #B9BCBC",
"y c #BFC2C1",
"u c #C5C8C6",
/* pixels */
"                                                ",
"                                                ",
"  ........................................      ",
"  ........................................      ",
"  ..                                    ..      ",
"  ..                                    ..      ",
"  ..  ................................  ..      ",
"  ..  ................................  ..      ",
"  ..  ................................  ......  ",
"  ..  ................................  ......  ",
"  ..  ................;48wtuuuuu......      ..  ",
"  ..  ..........O*;38uuuuuuuuuu.......      ..  ",
"  ..  .......;4wuuuuuuuuuuuuuuXX..........  ..  ",
"  ..  ......uuuuuuuuuuuuuuuuuOXX..........  ..  ",
"  ..  ................;uuuuu..X...........  ..  ",
"  ..  ................uuuuu...............  ..  ",
"  ..  ...............uuuuu................  ..  ",
"  ..  ..............uuuuu<................  ..  ",
"  ..  ............Ouuuuuuuuuuuuuuuuu......  ..  ",
"  ..  ............uuuuuuuuuuuuuur92*......  ..  ",
"  ..  ..........*uuuuuuuuuur95,*......      ..  ",
"  ..  ..........uuuue77<>>**..........      ..  ",
"  ..  ..........X.....................  ......  ",
"  ..  ..........X.....................  ......  ",
"  ..  ................................  ..      ",
"  ..  ................................  ..      ",
"  ..                                    ..      ",
"  ..                                    ..      ",
"  ........................................      ",
"  ........................................      ",
"                                                ",
"                                                "
};
