/* XPM */
static char *battery_on_7[] = {
/* columns rows colors chars-per-pixel */
"48 32 34 1 ",
"  c None",
". c #707880",
"X c #717880",
"o c #717981",
"O c #727A81",
"+ c #727A82",
"@ c #737B82",
"# c #757C84",
"$ c #757D84",
"% c #767E85",
"& c #777E85",
"* c #7A8188",
"= c #7B8288",
"- c #7C8389",
"; c #7F868B",
": c #7F868C",
"> c #868C91",
", c #898F93",
"< c #8A9094",
"1 c #909699",
"2 c #91969A",
"3 c #94999D",
"4 c #979C9F",
"5 c #9A9FA2",
"6 c #9BA0A2",
"7 c #9DA2A4",
"8 c #9EA2A4",
"9 c #A2A6A8",
"0 c #A2A7A8",
"q c #ADB1B1",
"w c #B4B8B8",
"e c #B9BCBC",
"r c #BFC2C1",
"t c #C5C8C6",
/* pixels */
"                                                ",
"                                                ",
"  ........................................      ",
"  ........................................      ",
"  ..                                    ..      ",
"  ..                                    ..      ",
"  ..  ............................      ..      ",
"  ..  ............................      ..      ",
"  ..  ............................      ......  ",
"  ..  ............................      ......  ",
"  ..  ................-260ettttt..          ..  ",
"  ..  ..........O&-16tttttttttt...          ..  ",
"  ..  .......-20ttttttttttttttXX..          ..  ",
"  ..  ......tttttttttttttttttOXX..          ..  ",
"  ..  ................-ttttt..X...          ..  ",
"  ..  ................ttttt.......          ..  ",
"  ..  ...............ttttt........          ..  ",
"  ..  ..............ttttt,........          ..  ",
"  ..  ............Ottttttttttttttttt        ..  ",
"  ..  ............ttttttttttttttw9          ..  ",
"  ..  ..........&ttttttttttw73>&..          ..  ",
"  ..  ..........ttttq55,::&&......          ..  ",
"  ..  ..........X.................      ......  ",
"  ..  ..........X.................      ......  ",
"  ..  ............................      ..      ",
"  ..  ............................      ..      ",
"  ..                                    ..      ",
"  ..                                    ..      ",
"  ........................................      ",
"  ........................................      ",
"                                                ",
"                                                "
};
