/* XPM */
static char *battery_idle_5[] = {
/* columns rows colors chars-per-pixel */
"48 32 3 1 ",
"  c None",
". c #373B41",
"X c #707880",
/* pixels */
"                                                ",
"                                                ",
"  XXXXXXXXXXXXXXXXXXXXXXXXXXXXXXXXXXXXXXXX      ",
"  XXXXXXXXXXXXXXXXXXXXXXXXXXXXXXXXXXXXXXXX      ",
"  XX                                    XX      ",
"  XX                                    XX      ",
"  XX  ....................              XX      ",
"  XX  ....................              XX      ",
"  XX  ....................              XXXXXX  ",
"  XX  ....................              XXXXXX  ",
"  XX  ....................                  XX  ",
"  XX  ....................                  XX  ",
"  XX  ....................                  XX  ",
"  XX  ....................                  XX  ",
"  XX  ....................                  XX  ",
"  XX  ....................                  XX  ",
"  XX  ....................                  XX  ",
"  XX  ....................                  XX  ",
"  XX  ....................                  XX  ",
"  XX  ....................                  XX  ",
"  XX  ....................                  XX  ",
"  XX  ....................                  XX  ",
"  XX  ....................              XXXXXX  ",
"  XX  ....................              XXXXXX  ",
"  XX  ....................              XX      ",
"  XX  ....................              XX      ",
"  XX                                    XX      ",
"  XX                                    XX      ",
"  XXXXXXXXXXXXXXXXXXXXXXXXXXXXXXXXXXXXXXXX      ",
"  XXXXXXXXXXXXXXXXXXXXXXXXXXXXXXXXXXXXXXXX      ",
"                                                ",
"                                                "
};
