/* XPM */
static char * battery_on_4_xpm[] = {
"48 32 18 1",
" 	c None",
".	c #707880",
"+	c #717880",
"@	c #717981",
"#	c #C5C8C6",
"$	c #727A82",
"%	c #757D84",
"&	c #7F868B",
"*	c #909699",
"=	c #9DA2A4",
"-	c #BFC2C1",
";	c #737B82",
">	c #7A8188",
",	c #A2A6A8",
"'	c #727A81",
")	c #757C84",
"!	c #ADB1B1",
"~	c #9A9FA2",
"                                                ",
"                                                ",
"  ........................................      ",
"  ........................................      ",
"  ..                                    ..      ",
"  ..                                    ..      ",
"  ..  ................                  ..      ",
"  ..  ................                  ..      ",
"  ..  ................                  ......  ",
"  ..  ................                  ......  ",
"  ..  ........++@+++@@   #######            ..  ",
"  ..  ........++$%&*=-#########             ..  ",
"  ..  ......;>*,##############              ..  ",
"  ..  ......#################               ..  ",
"  ..  ................ #####                ..  ",
"  ..  ................#####                 ..  ",
"  ..  ..............@#####                  ..  ",
"  ..  ..............#####                   ..  ",
"  ..  ............'#################        ..  ",
"  ..  ............###############           ..  ",
"  ..  ..........)###########                ..  ",
"  ..  ..........####!~                      ..  ",
"  ..  ................                  ......  ",
"  ..  ................                  ......  ",
"  ..  ................                  ..      ",
"  ..  ................                  ..      ",
"  ..                                    ..      ",
"  ..                                    ..      ",
"  ........................................      ",
"  ........................................      ",
"                                                ",
"                                                "};
