/* XPM */
static char *battery_on_3[] = {
/* columns rows colors chars-per-pixel */
"24 16 23 1 ",
"  c None",
". c #6F777F",
"X c #6F7780",
"o c #707880",
"O c #717981",
"+ c #737B83",
"@ c #747B83",
"# c #757C84",
"$ c #788087",
"% c #7A8188",
"& c #7A8289",
"* c #7B8289",
"= c #7C838A",
"- c #91979B",
"; c #A1A6A8",
": c #A2A7A9",
"> c #B3B7B7",
", c #BBBEBD",
"< c #C3C6C4",
"1 c #C4C7C5",
"2 c #C5C8C6",
"3 c #C6C9C6",
"4 c #C6C9C7",
/* pixels */
"                        ",
" oooooooooooooooooooo   ",
" o                  o   ",
" o oooooo           o   ",
" o oooooo           ooo ",
" o oooo#=  22222      o ",
" o oo@-:><22222       o ",
" o ooo&&&  222        o ",
" o oooXX. 222         o ",
" o ooooo$,2222222     o ",
" o oooo#:<2 2         o ",
" o ooooo&           ooo ",
" o oooooo           o   ",
" o                  o   ",
" oooooooooooooooooooo   ",
"                        "
};
