/* XPM */
static char *battery_on_4[] = {
/* columns rows colors chars-per-pixel */
"24 16 33 1 ",
"  c None",
". c #6F777F",
"X c #6F7780",
"o c #707880",
"O c #717981",
"+ c #737B83",
"@ c #747B83",
"# c #757C84",
"$ c #757D84",
"% c #767E85",
"& c #787F86",
"* c #798087",
"= c #798187",
"- c #7A8188",
"; c #7A8289",
": c #7B8389",
"> c #81888E",
", c #838A8F",
"< c #91979B",
"1 c #949A9E",
"2 c #A0A5A8",
"3 c #A2A7A9",
"4 c #A8ADAE",
"5 c #AAAEB0",
"6 c #B2B6B6",
"7 c #B6B9B9",
"8 c #BBBEBE",
"9 c #BBBFBE",
"0 c #BDC0BF",
"q c #BFC3C1",
"w c #C4C7C5",
"e c #C5C8C6",
"r c #C7CAC7",
/* pixels */
"                        ",
" oooooooooooooooooooo   ",
" o                  o   ",
" o oooooooo         o   ",
" o ooooooo.         ooo ",
" o oooo#:>10eeee      o ",
" o oo@<3679weee       o ",
" o ooo;;;*>0ee        o ",
" o oooXX.#4we         o ",
" o ooooo*5eweeeee     o ",
" o oooo@296we         o ",
" o ooooo**#         ooo ",
" o oooooX.o         o   ",
" o                  o   ",
" oooooooooooooooooooo   ",
"                        "
};
