/* XPM */
static char * battery_on_5_xpm[] = {
"48 32 27 1",
" 	c None",
".	c #707880",
"+	c #717880",
"@	c #717981",
"#	c #7B8288",
"$	c #91969A",
"%	c #9BA0A2",
"&	c #A2A7A8",
"*	c #C5C8C6",
"=	c #727A82",
"-	c #757D84",
";	c #7F868B",
">	c #909699",
",	c #9DA2A4",
"'	c #BFC2C1",
")	c #737B82",
"!	c #7A8188",
"~	c #A2A6A8",
"{	c #7C8389",
"]	c #8A9094",
"^	c #727A81",
"/	c #757C84",
"(	c #ADB1B1",
"_	c #9A9FA2",
":	c #979C9F",
"<	c #898F93",
"[	c #7F868C",
"                                                ",
"                                                ",
"  ........................................      ",
"  ........................................      ",
"  ..                                    ..      ",
"  ..                                    ..      ",
"  ..  ....................              ..      ",
"  ..  ....................              ..      ",
"  ..  ....................              ......  ",
"  ..  ....................              ......  ",
"  ..  ........++@+++@@#$%&******            ..  ",
"  ..  ........++=-;>,'*********             ..  ",
"  ..  ......)!>~**************              ..  ",
"  ..  ......*****************               ..  ",
"  ..  ................{*****                ..  ",
"  ..  ................*****                 ..  ",
"  ..  ..............@*****                  ..  ",
"  ..  ..............*****]                  ..  ",
"  ..  ............^*****************        ..  ",
"  ..  ............***************           ..  ",
"  ..  ........../***********                ..  ",
"  ..  ..........****(_:<[;                  ..  ",
"  ..  ....................              ......  ",
"  ..  ....................              ......  ",
"  ..  ....................              ..      ",
"  ..  ....................              ..      ",
"  ..                                    ..      ",
"  ..                                    ..      ",
"  ........................................      ",
"  ........................................      ",
"                                                ",
"                                                "};
