/* XPM */
static char *battery_on_8[] = {
/* columns rows colors chars-per-pixel */
"24 16 57 1 ",
"  c None",
". c #6F777F",
"X c #6F7780",
"o c #707880",
"O c #717981",
"+ c #727A82",
"@ c #737B82",
"# c #737B83",
"$ c #747B83",
"% c #757C84",
"& c #757D84",
"* c #767E85",
"= c #777E86",
"- c #787F86",
"; c #788087",
": c #798087",
"> c #798187",
", c #798188",
"< c #7A8188",
"1 c #7A8288",
"2 c #7A8289",
"3 c #7B8389",
"4 c #80868D",
"5 c #81888E",
"6 c #82898E",
"7 c #838A8F",
"8 c #8B9196",
"9 c #91979B",
"0 c #93989C",
"q c #949A9E",
"w c #999FA2",
"e c #A0A5A7",
"r c #A0A5A8",
"t c #A1A6A8",
"y c #A2A7A9",
"u c #A3A8AA",
"i c #A7ABAC",
"p c #A8ADAE",
"a c #A9ADAF",
"s c #AAAEB0",
"d c #ADB2B2",
"f c #B0B4B4",
"g c #B2B6B6",
"h c #B3B7B7",
"j c #B4B8B8",
"k c #B5B9B9",
"l c #B6B9B9",
"z c #B8BCBB",
"x c #B9BCBC",
"c c #BABEBD",
"v c #BCBFBE",
"b c #BDC0BF",
"n c #C2C5C3",
"m c #C2C6C4",
"M c #C6C9C7",
"N c #C7C9C7",
"B c #C7CAC7",
/* pixels */
"                        ",
" oooooooooooooooooooo   ",
" o                  o   ",
" o oooooooooo..oooo o   ",
" o oooooXXoo%-<:ooo ooo ",
" o oooo%<70udxbeooo   o ",
" o oo%9uhlxmBBs%Xoooo o ",
" o ooo<<<<5hBs%oXoooo o ",
" o oooXX.%aBl7<<<<ooo o ",
" o ooooX:sBBmxlliw%oo o ",
" o oooo%rxhirw84%oo   o ",
" o ooooo<<%ooXXXooo ooo ",
" o oooooXXooooooooo o   ",
" o                  o   ",
" oooooooooooooooooooo   ",
"                        "
};
