/* XPM */
static char * battery_on_1_xpm[] = {
"48 32 3 1",
" 	c None",
".	c #707880",
"+	c #C5C8C6",
"                                                ",
"                                                ",
"  ........................................      ",
"  ........................................      ",
"  ..                                    ..      ",
"  ..                                    ..      ",
"  ..  ....                              ..      ",
"  ..  ....                              ..      ",
"  ..  ....                              ......  ",
"  ..  ....                              ......  ",
"  ..  ....               +++++++            ..  ",
"  ..  ....           ++++++++++             ..  ",
"  ..  ....     +++++++++++++++              ..  ",
"  ..  ....  +++++++++++++++++               ..  ",
"  ..  ....             +++++                ..  ",
"  ..  ....            +++++                 ..  ",
"  ..  ....           +++++                  ..  ",
"  ..  ....          +++++                   ..  ",
"  ..  ....         +++++++++++++++++        ..  ",
"  ..  ....        +++++++++++++++           ..  ",
"  ..  ....       +++++++++++                ..  ",
"  ..  ....      +++++                       ..  ",
"  ..  ....                              ......  ",
"  ..  ....                              ......  ",
"  ..  ....                              ..      ",
"  ..  ....                              ..      ",
"  ..                                    ..      ",
"  ..                                    ..      ",
"  ........................................      ",
"  ........................................      ",
"                                                ",
"                                                "};
