/* XPM */
static char *battery_on_7[] = {
/* columns rows colors chars-per-pixel */
"24 16 54 1 ",
"  c None",
". c #6F777F",
"X c #6F7780",
"o c #707880",
"O c #717981",
"+ c #727A82",
"@ c #737B83",
"# c #747B83",
"$ c #757C84",
"% c #757D84",
"& c #767E85",
"* c #787F86",
"= c #788087",
"- c #798087",
"; c #798187",
": c #798188",
"> c #7A8188",
", c #7A8289",
"< c #7B8389",
"1 c #80868C",
"2 c #81888E",
"3 c #82898E",
"4 c #838A8F",
"5 c #8B9196",
"6 c #91979B",
"7 c #93989C",
"8 c #999FA2",
"9 c #9FA4A7",
"0 c #A0A5A8",
"q c #A1A6A8",
"w c #A2A7A9",
"e c #A3A8AA",
"r c #A7ABAC",
"t c #A8ADAE",
"y c #A9ADAF",
"u c #AAAEB0",
"i c #AAAFB0",
"p c #ADB2B2",
"a c #B0B4B4",
"s c #B2B6B6",
"d c #B3B7B7",
"f c #B4B8B8",
"g c #B5B9B9",
"h c #B6B9B9",
"j c #B8BCBB",
"k c #B9BCBC",
"l c #BABEBD",
"z c #BCBFBE",
"x c #BDC0BF",
"c c #C2C5C3",
"v c #C2C6C4",
"b c #C6C9C7",
"n c #C7C9C7",
"m c #C7CAC7",
/* pixels */
"                        ",
" oooooooooooooooooooo   ",
" o                  o   ",
" o oooooooooo..oo   o   ",
" o ooooooooo$*>-o   ooo ",
" o oooo$>47epkx9o     o ",
" o oo$6edhkvmmu$o     o ",
" o ooo>>>-2dmu$oo     o ",
" o oooX..$tnh4>><     o ",
" o ooooo-umnckjfu     o ",
" o oooo$0kdt995<*     o ",
" o ooooo>-$o.oooo   ooo ",
" o ooooo..oo.oooo   o   ",
" o                  o   ",
" oooooooooooooooooooo   ",
"                        "
};
