/* XPM */
static char *battery_on_2[] = {
/* columns rows colors chars-per-pixel */
"24 16 10 1 ",
"  c None",
". c #6F7780",
"X c #707880",
"o c #717981",
"O c #747C83",
"+ c #7B8289",
"@ c #91979B",
"# c #BDC1C0",
"$ c #C5C8C6",
"% c #C6C9C7",
/* pixels */
"                        ",
" XXXXXXXXXXXXXXXXXXXX   ",
" X                  X   ",
" X XXXX             X   ",
" X XXXX             XXX ",
" X XXXX    $$$$$      X ",
" X XXO@#$$$$$$$       X ",
" X XXX+    $$$        X ",
" X XXXX   $$$         X ",
" X XXXX  $$$$$$$$     X ",
" X XXXX $$$ $         X ",
" X XXXX             XXX ",
" X XXXX             X   ",
" X                  X   ",
" XXXXXXXXXXXXXXXXXXXX   ",
"                        "
};
