/* XPM */
static char * battery_on_2_xpm[] = {
"48 32 5 1",
" 	c None",
".	c #707880",
"+	c #C5C8C6",
"@	c #737B82",
"#	c #7A8188",
"                                                ",
"                                                ",
"  ........................................      ",
"  ........................................      ",
"  ..                                    ..      ",
"  ..                                    ..      ",
"  ..  ........                          ..      ",
"  ..  ........                          ..      ",
"  ..  ........                          ......  ",
"  ..  ........                          ......  ",
"  ..  ........           +++++++            ..  ",
"  ..  ........       ++++++++++             ..  ",
"  ..  ......@# +++++++++++++++              ..  ",
"  ..  ......+++++++++++++++++               ..  ",
"  ..  ........         +++++                ..  ",
"  ..  ........        +++++                 ..  ",
"  ..  ........       +++++                  ..  ",
"  ..  ........      +++++                   ..  ",
"  ..  ........     +++++++++++++++++        ..  ",
"  ..  ........    +++++++++++++++           ..  ",
"  ..  ........   +++++++++++                ..  ",
"  ..  ........  +++++                       ..  ",
"  ..  ........                          ......  ",
"  ..  ........                          ......  ",
"  ..  ........                          ..      ",
"  ..  ........                          ..      ",
"  ..                                    ..      ",
"  ..                                    ..      ",
"  ........................................      ",
"  ........................................      ",
"                                                ",
"                                                "};
