/* XPM */
static char *battery_on_5[] = {
/* columns rows colors chars-per-pixel */
"24 16 43 1 ",
"  c None",
". c #6F777F",
"X c #6F7780",
"o c #707880",
"O c #717981",
"+ c #727A82",
"@ c #737B83",
"# c #747B83",
"$ c #757C84",
"% c #757D84",
"& c #767E85",
"* c #787F86",
"= c #798087",
"- c #798187",
"; c #7A8188",
": c #7A8289",
"> c #7B8389",
", c #81888E",
"< c #838A8F",
"1 c #91979B",
"2 c #93989C",
"3 c #A0A5A8",
"4 c #A2A7A9",
"5 c #A3A8AA",
"6 c #A6ABAC",
"7 c #A8ADAE",
"8 c #AAAEB0",
"9 c #AFB3B3",
"0 c #B0B4B4",
"q c #B2B6B6",
"w c #B3B7B7",
"e c #B6B9B9",
"r c #BABEBD",
"t c #BBBFBE",
"y c #BCBFBE",
"u c #BDC1C0",
"i c #C2C5C3",
"p c #C2C5C4",
"a c #C3C6C5",
"s c #C4C7C5",
"d c #C5C8C6",
"f c #C6C9C7",
"g c #C7CAC7",
/* pixels */
"                        ",
" oooooooooooooooooooo   ",
" o                  o   ",
" o oooooooooo       o   ",
" o oooooXXXo$       ooo ",
" o oooo$;<259pdd      o ",
" o oo$14wetigdd       o ",
" o ooo;;;;,wdd        o ",
" o oooXX.$7dt         o ",
" o ooooo=8ggpdddd     o ",
" o oooo#4t975u        o ",
" o ooooo==$oo       ooo ",
" o oooooXXooo       o   ",
" o                  o   ",
" oooooooooooooooooooo   ",
"                        "
};
