/* XPM */
static char * battery_on_3_xpm[] = {
"48 32 12 1",
" 	c None",
".	c #707880",
"+	c #717880",
"@	c #717981",
"#	c #C5C8C6",
"$	c #727A82",
"%	c #757D84",
"&	c #737B82",
"*	c #7A8188",
"=	c #909699",
"-	c #A2A6A8",
";	c #757C84",
"                                                ",
"                                                ",
"  ........................................      ",
"  ........................................      ",
"  ..                                    ..      ",
"  ..                                    ..      ",
"  ..  ............                      ..      ",
"  ..  ............                      ..      ",
"  ..  ............                      ......  ",
"  ..  ............                      ......  ",
"  ..  ........++@+       #######            ..  ",
"  ..  ........++$%   ##########             ..  ",
"  ..  ......&*=-##############              ..  ",
"  ..  ......#################               ..  ",
"  ..  ............     #####                ..  ",
"  ..  ............    #####                 ..  ",
"  ..  ............   #####                  ..  ",
"  ..  ............  #####                   ..  ",
"  ..  ............ #################        ..  ",
"  ..  ............###############           ..  ",
"  ..  ..........;###########                ..  ",
"  ..  ..........#####                       ..  ",
"  ..  ............                      ......  ",
"  ..  ............                      ......  ",
"  ..  ............                      ..      ",
"  ..  ............                      ..      ",
"  ..                                    ..      ",
"  ..                                    ..      ",
"  ........................................      ",
"  ........................................      ",
"                                                ",
"                                                "};
