/* XPM */
static char * battery_on_7_xpm[] = {
"48 32 34 1",
" 	c None",
".	c #707880",
"+	c #717880",
"@	c #717981",
"#	c #7B8288",
"$	c #91969A",
"%	c #9BA0A2",
"&	c #A2A7A8",
"*	c #B9BCBC",
"=	c #C5C8C6",
"-	c #727A82",
";	c #757D84",
">	c #7F868B",
",	c #909699",
"'	c #9DA2A4",
")	c #BFC2C1",
"!	c #737B82",
"~	c #7A8188",
"{	c #A2A6A8",
"]	c #7C8389",
"^	c #8A9094",
"/	c #727A81",
"(	c #B4B8B8",
"_	c #9EA2A4",
":	c #757C84",
"<	c #94999D",
"[	c #868C91",
"}	c #777E85",
"|	c #ADB1B1",
"1	c #9A9FA2",
"2	c #979C9F",
"3	c #898F93",
"4	c #7F868C",
"5	c #767E85",
"                                                ",
"                                                ",
"  ........................................      ",
"  ........................................      ",
"  ..                                    ..      ",
"  ..                                    ..      ",
"  ..  ............................      ..      ",
"  ..  ............................      ..      ",
"  ..  ............................      ......  ",
"  ..  ............................      ......  ",
"  ..  ........++@+++@@#$%&*=====..          ..  ",
"  ..  ........++-;>,')=========+..          ..  ",
"  ..  ......!~,{==============....          ..  ",
"  ..  ......=================@....          ..  ",
"  ..  ................]=====......          ..  ",
"  ..  ................=====-......          ..  ",
"  ..  ..............@=====........          ..  ",
"  ..  ..............=====^........          ..  ",
"  ..  ............/=================        ..  ",
"  ..  ............==============(_          ..  ",
"  ..  ..........:==========('<[}/@          ..  ",
"  ..  ..........====|1234>5;/+...+          ..  ",
"  ..  ............................      ......  ",
"  ..  ............................      ......  ",
"  ..  ............................      ..      ",
"  ..  ............................      ..      ",
"  ..                                    ..      ",
"  ..                                    ..      ",
"  ........................................      ",
"  ........................................      ",
"                                                ",
"                                                "};
