/* XPM */
static char *battery_on_6[] = {
/* columns rows colors chars-per-pixel */
"24 16 52 1 ",
"  c None",
". c #6F777F",
"X c #6F7780",
"o c #707880",
"O c #717981",
"+ c #727A82",
"@ c #737B83",
"# c #747B83",
"$ c #757C84",
"% c #757D84",
"& c #767E85",
"* c #777F86",
"= c #787F86",
"- c #788087",
"; c #798087",
": c #798187",
"> c #7A8188",
", c #7A8289",
"< c #7B8389",
"1 c #81888E",
"2 c #82888E",
"3 c #838A8F",
"4 c #8C9297",
"5 c #91979B",
"6 c #93989C",
"7 c #999FA2",
"8 c #A0A5A8",
"9 c #A1A6A8",
"0 c #A2A7A9",
"q c #A3A8AA",
"w c #A7ABAC",
"e c #A8ADAE",
"r c #AAAEB0",
"t c #ADB2B2",
"y c #B0B4B4",
"u c #B2B6B6",
"i c #B3B7B7",
"p c #B5B9B9",
"a c #B6B9B9",
"s c #B9BCBC",
"d c #B9BDBC",
"f c #BABEBD",
"g c #BCBFBE",
"h c #BEC1C0",
"j c #C2C5C3",
"k c #C2C6C4",
"l c #C3C6C4",
"z c #C4C7C5",
"x c #C5C8C6",
"c c #C6C9C7",
"v c #C7C9C7",
"b c #C7CAC7",
/* pixels */
"                        ",
" oooooooooooooooooooo   ",
" o                  o   ",
" o ooooooooooXX     o   ",
" o oooooXXXo$=>     ooo ",
" o oooo$>36qtshz      o ",
" o oo$5qysfkbby       o ",
" o ooo>>>>3ycr$       o ",
" o oooXX.$rbp3>       o ",
" o ooooX$tbbkffkc     o ",
" o oooo$9fye974       o ",
" o ooooo>>$ooXX     ooo ",
" o oooooXXXoooo     o   ",
" o                  o   ",
" oooooooooooooooooooo   ",
"                        "
};
