/* XPM */
static char *battery_on_0[] = {
/* columns rows colors chars-per-pixel */
"24 16 3 1 ",
"  c None",
". c #707880",
"X c #C5C8C6",
/* pixels */
"                        ",
" ....................   ",
" .                  .   ",
" .                  .   ",
" .                  ... ",
" .         XXXXX      . ",
" .     XXXXXXXX       . ",
" .         XXX        . ",
" .        XXX         . ",
" .       XXXXXXXX     . ",
" .      XXX X         . ",
" .                  ... ",
" .                  .   ",
" .                  .   ",
" ....................   ",
"                        "
};
