/* XPM */
static char *battery_off_1[] = {
/* columns rows colors chars-per-pixel */
"48 32 6 1 ",
"  c None",
". c #A83F3F",
"X c #A64141",
"o c #A54242",
"O c #6F7981",
"+ c #707880",
/* pixels */
"                                                ",
"                                                ",
"  ++++++++++++++++++++++++++++++++++++++++      ",
"  ++++OOOO++++++++++++++++++++++++++++++++      ",
"  ++                                    ++      ",
"  ++                                    ++      ",
"  +O  .XXX                              ++      ",
"  +O  XXoo                              ++      ",
"  +O  Xooo                              ++++++  ",
"  +O  Xooo                              ++++++  ",
"  +O  Xooo                                  ++  ",
"  +O  Xooo                                  ++  ",
"  +O  XXoo                                  ++  ",
"  +O  XXoo                                  ++  ",
"  +O  XXoo                                  ++  ",
"  +O  XXoo                                  ++  ",
"  +O  Xooo                                  ++  ",
"  +O  Xooo                                  ++  ",
"  +O  Xooo                                  ++  ",
"  +O  Xooo                                  ++  ",
"  +O  Xooo                                  ++  ",
"  +O  Xooo                                  ++  ",
"  +O  Xooo                              ++++++  ",
"  +O  Xooo                              ++++++  ",
"  +O  XoXo                              ++      ",
"  +O  XXXX                              ++      ",
"  ++                                    ++      ",
"  ++                                    ++      ",
"  +++++OOO++++++++++++++++++++++++++++++++      ",
"  ++++++++++++++++++++++++++++++++++++++++      ",
"                                                ",
"                                                "
};
