/* XPM */
static char *battery_off_0[] = {
/* columns rows colors chars-per-pixel */
"48 32 2 1 ",
"  c None",
". c #707880",
/* pixels */
"                                                ",
"                                                ",
"  ........................................      ",
"  ........................................      ",
"  ..                                    ..      ",
"  ..                                    ..      ",
"  ..                                    ..      ",
"  ..                                    ..      ",
"  ..                                    ......  ",
"  ..                                    ......  ",
"  ..                                        ..  ",
"  ..                                        ..  ",
"  ..                                        ..  ",
"  ..                                        ..  ",
"  ..                                        ..  ",
"  ..                                        ..  ",
"  ..                                        ..  ",
"  ..                                        ..  ",
"  ..                                        ..  ",
"  ..                                        ..  ",
"  ..                                        ..  ",
"  ..                                        ..  ",
"  ..                                    ......  ",
"  ..                                    ......  ",
"  ..                                    ..      ",
"  ..                                    ..      ",
"  ..                                    ..      ",
"  ..                                    ..      ",
"  ........................................      ",
"  ........................................      ",
"                                                ",
"                                                "
};
