/* XPM */
static char *Full[] = {
/* columns rows colors chars-per-pixel */
"32 32 2 1 ",
"  c None",
". c #A0A8A0",
/* pixels */
"................................",
"................................",
"................................",
"................................",
"....          ......        ....",
"....          ......        ....",
"....  ....................  ....",
"....  ....................  ....",
"....  ....................  ....",
"....  ....................  ....",
"....  ....................  ....",
"....  ....................  ....",
"................................",
"................................",
"................................",
"................................",
"................................",
"................................",
"................................",
"................................",
"....  ....................  ....",
"....  ....................  ....",
"....  ....................  ....",
"....  ....................  ....",
"....  ....................  ....",
"....  ....................  ....",
"....        ........        ....",
"....        ........        ....",
"................................",
"................................",
"................................",
"................................"
};
