/* XPM */
static char *tall[] = {
/* columns rows colors chars-per-pixel */
"32 32 8 1 ",
"  c None",
". c #545655",
"X c #545755",
"o c #555856",
"O c #A0A8A0",
"+ c #A1AAA1",
"@ c #A2AAA2",
"# c #A4ACA3",
/* pixels */
"oooooooooooooooooooooooooooooooo",
"ooooX....X...XooX....X....XXXooo",
"oo                            oo",
"oo                            oo",
"oX  #+++++++++  ++++++++++++  Xo",
"oX  ++OOOOOOO+  O+OOOOOOOO++  Xo",
"o.  +OOOOOOOOO  OOOOOOOOOOO+  Xo",
"o.  +OOOOOOOOO  OOOOOOOOOO++  .o",
"o.  +OOOOOOOOO  OOOOOOOOOOO+  Xo",
"o.  +OOOOOOOOO  OOO+OOO+OO++  Xo",
"o.  +OOOOOOOOO                Xo",
"oX  +OOOOOOOO+                oo",
"o.  ++OOOOOOOO  +OOOOOOOOOO+  Xo",
"o.  +OOOOOOOOO  OOOOOOOOOOO+  Xo",
"o.  +OOOOOOOOO  OOOOOOOOOOO+  Xo",
"o.  +OOOOOOOOO  OOOOOOOOOO++  .o",
"o.  +OOOOOOOOO  OOOOOOOOOOO+  Xo",
"oX  +OOOOOOOO+  OOOOOOOOOOO+  .o",
"o.  +OOOOOOOOO  OOOOOOOOOOO+  .o",
"o.  +OOOOOOOOO  OOOOOOO+OOO+  Xo",
"o.  +OOOOOOOOO                oo",
"o.  +OOOOOOOOO                oo",
"o.  +OOOOOOOOO  +OOO+OOO+OO+  Xo",
"oX  +OOOOOOOO+  OOOOOOOOOO++  .o",
"o.  +OOOOOOOOO  OOOOOOOOOOO+  Xo",
"o.  ++OOOOOOOO  OOOOOOOOOO++  .o",
"o.  +OOOOOO+OO  OOOOOO+OOOO+  .o",
"oX  ++++++++++  ++++++++++++  Xo",
"oo                            oo",
"oo                            oo",
"ooooX.XX...XXXoXX.X.....X..Xoooo",
"oooooooooooooooooooooooooooooooo"
};
