/* XPM */
static char *monocle[] = {
/* columns rows colors chars-per-pixel */
"32 32 7 1 ",
"  c None",
". c #545655",
"X c #545755",
"o c #555856",
"O c #A0A8A0",
"+ c #A1AAA1",
"@ c #A4ACA3",
/* pixels */
"oooooooooooooooooooooooooooooooo",
"ooooX....X.....X.....X....XXXooo",
"oo                            oo",
"oo                            oo",
"oX  @+++++++++++++++++++++++  Xo",
"oX  ++OOOOOOOOOOO+OOOOOOOO++  Xo",
"o.  +OOOOOOOOOOOOOOOOOOOOOO+  Xo",
"o.  +OOOOOOOOOOOOOOOOOOOOO++  .o",
"o.  +OOOOOOOOOOOOOOOOOOOOOO+  Xo",
"o.  +OOOOOOOOOOOOOOOOOOOOOO+  .o",
"o.  +OOOOOOOOOOOOOOOOOOOOOO+  .o",
"oX  +OOOOOOOOOOOOOOOOOOOOOO+  .o",
"o.  ++OOOOOOOOOOOOOOOOOOOOO+  Xo",
"o.  +OOOOOOOOOOOOOOOOOOOOOO+  .o",
"o.  +OOOOOOOOOOOOOOOOOOOOOO+  .o",
"o.  +OOOOOOOOOOOOOOOOOOOOO++  .o",
"o.  +OOOOOOOOOOOOOOOOOOOOOO+  Xo",
"oX  +OOOOOOOOOOOOOOOOOOOOOO+  .o",
"o.  +OOOOOOOOOOOOOOOOOOOOOO+  .o",
"o.  +OOOOOOOOOOOOOOOOOOOOOO+  .o",
"o.  +OOOOOOOOOOOOOOOOOOOOOO+  Xo",
"o.  +OOOOOOOOOOOOOOOOOOOOOO+  .o",
"o.  +OOOOOOOOOOOOOOOOOOOOOO+  .o",
"oX  +OOOOOOOOOOOOOOOOOOOOO++  .o",
"o.  +OOOOOOOOOOOOOOOOOOOOOO+  Xo",
"o.  ++OOOOOOOOOOOOOOOOOOOO++  .o",
"o.  +OOOOOO+OOOOOOOOOO+OOOO+  .o",
"oX  ++++++++++++++++++++++++  Xo",
"oo                            oo",
"oo                            oo",
"ooooX.XX....X.....X.....X..Xoooo",
"oooooooooooooooooooooooooooooooo"
};
